<svg viewBox="0 0 18.3629 20" fill="none" xmlns="http://www.w3.org/2000/svg">
  <path fill-rule="evenodd" clip-rule="evenodd" d="M7.11991 0.984616L6.45837 2.69231L4.18144 3.98461L2.36605 3.70769C2.06378 3.66666 1.75612 3.71643 1.48218 3.85066C1.20825 3.98489 0.980396 4.19751 0.827596 4.46154L0.212212 5.53846C0.0545218 5.80669 -0.018131 6.11643 0.00384185 6.4268C0.0258147 6.73717 0.141382 7.03359 0.335289 7.27693L1.48914 8.70769V11.2923L0.366058 12.7231C0.17215 12.9664 0.0565847 13.2628 0.0346119 13.5732C0.0126376 13.8836 0.0852904 14.1933 0.24298 14.4616L0.858368 15.5384C1.01117 15.8024 1.23902 16.0151 1.51295 16.1493C1.78688 16.2836 2.09454 16.3333 2.39682 16.2923L4.21221 16.0154L6.45837 17.3077L7.11991 19.0154C7.23147 19.3046 7.42775 19.5533 7.68305 19.7289C7.93835 19.9046 8.24077 19.9991 8.55067 20H9.84298C10.1529 19.9991 10.4553 19.9046 10.7106 19.7289C10.9659 19.5533 11.1622 19.3046 11.2738 19.0154L11.9353 17.3077L14.1815 16.0154L15.9969 16.2923C16.2992 16.3333 16.6067 16.2836 16.8807 16.1493C17.1546 16.0151 17.3825 15.8024 17.5353 15.5384L18.1507 14.4616C18.3083 14.1933 18.381 13.8836 18.359 13.5732C18.337 13.2628 18.2215 12.9664 18.0276 12.7231L16.8737 11.2923V8.70769L17.9969 7.27693C18.1907 7.03359 18.3063 6.73717 18.3283 6.4268C18.3503 6.11643 18.2776 5.80669 18.1199 5.53846L17.5045 4.46154C17.3517 4.19751 17.1239 3.98489 16.8499 3.85066C16.576 3.71643 16.2683 3.66666 15.966 3.70769L14.1507 3.98461L11.9045 2.69231L11.243 0.984616C11.1314 0.695483 10.9351 0.446786 10.6798 0.271096C10.4245 0.095406 10.1221 0.000915471 9.81221 0H8.55067C8.24077 0.000915471 7.93835 0.095406 7.68305 0.271096C7.42775 0.446786 7.23147 0.695483 7.11991 0.984616ZM9.18145 13.2143C10.9567 13.2143 12.3957 11.7752 12.3957 10C12.3957 8.2248 10.9567 6.78571 9.18145 6.78571C7.40625 6.78571 5.96717 8.2248 5.96717 10C5.96717 11.7752 7.40625 13.2143 9.18145 13.2143Z" fill="currentColor"/>
</svg>
