<svg viewBox="0 0 18.5714 18.5714" fill="none" xmlns="http://www.w3.org/2000/svg">
  <path fill-rule="evenodd" clip-rule="evenodd" d="M4.28571 0C1.91879 0 0 1.91879 0 4.28571C0 6.65264 1.91879 8.57143 4.28571 8.57143C6.65264 8.57143 8.57143 6.65264 8.57143 4.28571C8.57143 1.91879 6.65264 0 4.28571 0ZM14.2857 0C11.9188 0 10 1.91879 10 4.28571C10 6.65264 11.9188 8.57143 14.2857 8.57143C16.6527 8.57143 18.5714 6.65264 18.5714 4.28571C18.5714 1.91879 16.6527 0 14.2857 0ZM0 14.2857C0 11.9188 1.91879 10 4.28571 10C6.65264 10 8.57143 11.9188 8.57143 14.2857C8.57143 16.6527 6.65264 18.5714 4.28571 18.5714C1.91879 18.5714 0 16.6527 0 14.2857ZM14.2857 10C11.9188 10 10 11.9188 10 14.2857C10 16.6527 11.9188 18.5714 14.2857 18.5714C16.6527 18.5714 18.5714 16.6527 18.5714 14.2857C18.5714 11.9188 16.6527 10 14.2857 10Z" fill="currentColor"/>
</svg>
