<svg width="14" height="14" viewBox="0 0 14 14" fill="none" xmlns="http://www.w3.org/2000/svg">
  <path fill-rule="evenodd" clip-rule="evenodd" d="M6.35243 3.14492C6.55534 3.0498 6.7759 3 7.00001 3C7.22413 3 7.44468 3.0498 7.64758 3.14492L7.65903 3.15029L12.9385 5.79043C12.9437 5.79304 12.9489 5.79574 12.954 5.79853C13.2983 5.98598 13.5 6.36126 13.5 6.73764C13.5 7.11403 13.2983 7.48931 12.954 7.67676C12.9489 7.67954 12.9437 7.68224 12.9385 7.68485L7.65896 10.3248L7.64765 10.3305C7.44475 10.4256 7.22413 10.4753 7.00001 10.4753C6.7759 10.4753 6.55534 10.4255 6.35243 10.3304L6.34098 10.325L1.06148 7.68485C1.05627 7.68224 1.05111 7.67954 1.04599 7.67676C0.701752 7.4893 0.5 7.11402 0.5 6.73764C0.5 6.36126 0.701752 5.98598 1.04599 5.79853C1.05111 5.79574 1.05627 5.79304 1.06148 5.79043L6.34105 3.15044L6.35243 3.14492Z" fill="currentColor"/>
</svg>
