<svg width="14" height="14" viewBox="0 0 14 14" fill="none" xmlns="http://www.w3.org/2000/svg">
  <path fill-rule="evenodd" clip-rule="evenodd" d="M13.2803 0.71967c0.2929 0.29289 0.2929 0.76777 0 1.06066l-0.9565 0.95656c0.804 1.28497 0.6473 2.99944 -0.4702 4.11697l-1 1c-0.1953 0.19526 -0.5119 0.19526 -0.7072 0L6.14645 3.85385c-0.19527 -0.19526 -0.19527 -0.51184 0 -0.7071l1 -1C8.26386 1.02934 9.97811 0.872517 11.263 1.6763l0.9567 -0.95663c0.2929 -0.292893 0.7677 -0.292893 1.0606 0ZM6.53033 6.53033c0.29289 -0.29289 0.29289 -0.76777 0 -1.06066s-0.76777 -0.29289 -1.06066 0L4.32322 6.61612l-0.46967 -0.46967c-0.19526 -0.19527 -0.51184 -0.19527 -0.70711 0l-1 1C1.02898 8.26391 0.872197 9.97828 1.67611 11.2632l-0.95644 0.9565c-0.292893 0.2929 -0.292893 0.7677 0 1.0606 0.29289 0.2929 0.76777 0.2929 1.06066 0l0.95644 -0.9564c1.28495 0.8039 2.99931 0.6471 4.11678 -0.4703l1 -1c0.19526 -0.1953 0.19526 -0.5119 0 -0.7072l-0.46967 -0.46962 1.14645 -1.14645c0.29289 -0.29289 0.29289 -0.76777 0 -1.06066s-0.76777 -0.29289 -1.06066 0L6.32322 8.61612l-0.93934 -0.93934 1.14645 -1.14645Z" fill="currentColor"/>
</svg>
