<svg viewBox="0 0 17.1441 20.0177" fill="none" xmlns="http://www.w3.org/2000/svg">
  <path fill-rule="evenodd" clip-rule="evenodd" d="M5.71488 0C5.32039 0 5.00059 0.319797 5.00059 0.714286V1.57494L0.448676 4.8263C0.213934 4.99399 0.0567193 5.24923 0.0126051 5.53431C-0.0315064 5.8194 0.0412051 6.11024 0.214291 6.34101L2.2599 9.0685C2.61495 9.54188 3.28652 9.63783 3.7599 9.28278C4.23329 8.92774 4.32923 8.25617 3.97419 7.78278L2.58656 5.93261L5.454 3.88444C5.61309 4.1693 5.81183 4.43343 6.04663 4.66824C6.7164 5.33801 7.62482 5.71428 8.57202 5.71428C9.51922 5.71428 10.4276 5.33801 11.0974 4.66824C11.3322 4.43343 11.5309 4.1693 11.69 3.88444L14.7049 6.03788L13.7506 7.94648C13.4859 8.47574 13.7004 9.11933 14.2297 9.38396C14.759 9.64858 15.4026 9.43406 15.6672 8.9048L17.0309 6.17731C17.2667 5.70576 17.1243 5.13274 16.6953 4.8263L12.1434 1.57494V0.714286C12.1434 0.319797 11.8236 0 11.4292 0H5.71488ZM13.3453 10.5543L8.85339 8.62918C8.67372 8.55217 8.47032 8.55217 8.29065 8.62918L3.79868 10.5543L5.42064 11.2494C7.43303 12.1119 9.71097 12.1119 11.7234 11.2494L13.3453 10.5543ZM2.85773 17.1429V12.0939L5.47584 13.1469C7.48548 13.9551 9.71416 14.1035 11.7033 13.246C12.7207 12.8074 13.6479 12.3675 14.2863 12.0938V17.1429C14.2863 17.4286 14.116 17.6869 13.8534 17.7994C13.3898 17.9981 12.5923 18.3591 11.7426 18.7351C9.71406 19.6327 7.46209 19.5515 5.4169 18.6925L3.29065 17.7994C3.02802 17.6869 2.85773 17.4286 2.85773 17.1429Z" fill="currentColor"/>
</svg>
