<svg viewBox="0 0 20.0005 20" fill="none" xmlns="http://www.w3.org/2000/svg">
  <path fill-rule="evenodd" clip-rule="evenodd" d="M7.85739 2.14286C7.19446 2.14286 6.34165 2.66494 5.57836 4.08006C5.29745 4.60087 4.64753 4.79534 4.12672 4.51443C3.60592 4.23351 3.41145 3.5836 3.69236 3.0628C4.59895 1.38198 6.0176 0 7.85739 0C9.74192 0 11.1838 1.44763 12.091 3.19224C13.0256 4.98957 13.5717 7.3982 13.5717 10C13.5717 12.6018 13.0256 15.0104 12.091 16.8077C11.1838 18.5524 9.74192 20 7.85739 20C6.0176 20 4.59895 18.618 3.69236 16.9371C3.41145 16.4164 3.60592 15.7664 4.12672 15.4856C4.64753 15.2047 5.29745 15.3991 5.57836 15.92C6.34165 17.335 7.19446 17.8571 7.85739 17.8571C8.53705 17.8571 9.4166 17.306 10.1898 15.8191C10.9356 14.385 11.4288 12.3293 11.4288 10C11.4288 7.67069 10.9356 5.61503 10.1898 4.18086C9.4166 2.69396 8.53705 2.14286 7.85739 2.14286ZM15.423 5.21866C15.7481 4.97139 16.1855 4.93046 16.5508 5.11311L19.3991 6.53729C19.6097 6.63999 19.7883 6.81213 19.8965 7.04017C20.0084 7.2755 20.0268 7.53111 19.967 7.7652C19.954 7.81619 19.9373 7.8659 19.917 7.91403C19.8187 8.14894 19.6368 8.34984 19.3887 8.46774C18.2054 9.02997 16.9598 9.45029 15.678 9.71993C15.0988 9.84171 14.5307 9.47103 14.409 8.89197C14.2871 8.31291 14.6578 7.74474 15.2368 7.62294L15.2818 7.61341L15.0203 6.27733C14.9417 5.8765 15.098 5.46591 15.423 5.21866ZM6.80138 5.7144C6.78043 5.7141 6.75949 5.71441 6.73856 5.71533C4.61349 5.80944 2.52915 6.33053 0.609796 7.24753C0.0758689 7.50261 -0.150173 8.14224 0.104918 8.67617C0.360009 9.2101 0.999633 9.43614 1.53356 9.18104C3.18359 8.39271 4.97466 7.94276 6.80113 7.85756C7.29705 7.86751 7.78766 7.94609 8.2593 8.08983C8.82533 8.26236 9.42405 7.94334 9.59656 7.37731C9.76908 6.8113 9.45008 6.21259 8.88405 6.04007C8.2107 5.83484 7.5097 5.72459 6.80138 5.7144ZM16.5508 10.57C16.1761 10.3826 15.7265 10.4309 15.4001 10.6935C15.0737 10.9561 14.9303 11.3849 15.033 11.7911L15.3527 13.055C15.3141 13.0634 15.2755 13.0717 15.2368 13.0798C14.6578 13.2016 14.2871 13.7698 14.409 14.3489C14.5307 14.928 15.0988 15.2986 15.678 15.1769C16.9598 14.9071 18.2054 14.4869 19.3887 13.9246C19.637 13.8067 19.819 13.6056 19.9173 13.3705C19.9373 13.3225 19.954 13.2729 19.967 13.2221C20.0268 12.988 20.0084 12.7324 19.8965 12.4971C19.7883 12.269 19.6097 12.0969 19.3993 11.9942L16.5508 10.57ZM6.73856 11.1722C6.76106 11.1712 6.78359 11.1709 6.80612 11.1714C7.5149 11.1847 8.21592 11.2982 8.88879 11.5067C9.454 11.6818 9.77023 12.282 9.5951 12.8472C9.41998 13.4125 8.81979 13.7287 8.25458 13.5535C7.78399 13.4077 7.29416 13.3269 6.7987 13.3146C4.97306 13.4 3.18286 13.85 1.53356 14.638C0.999633 14.893 0.360009 14.667 0.104918 14.1331C-0.150173 13.5991 0.0758689 12.9595 0.609796 12.7044C2.52915 11.7874 4.61349 11.2663 6.73856 11.1722Z" fill="currentColor"/>
</svg>
